{
  "title": "Pink - Just Give Me A Reason (Ft. Nate Ruess) M4A+MP4 (1080p) x2",
  "uid": 8133418,
  "size": 43130552,
  "categoryP": "video",
  "categoryS": "music_videos",
  "magnet": "?xt=urn:btih:120ad76789b11bce2d6005d1c22ccf1507c3021a&amp;dn=Pink+-+Just+Give+Me+A+Reason+%28Ft.+Nate+Ruess%29+M4A%2BMP4+%281080p%29+x2&amp;tr=udp%3A%2F%2Ftracker.openbittorrent.com%3A80&amp;tr=udp%3A%2F%2Fopen.demonii.com%3A1337&amp;tr=udp%3A%2F%2Ftracker.coppersurfer.tk%3A6969&amp;tr=udp%3A%2F%2Fexodus.desync.com%3A6969",
  "seeders": 65,
  "leechers": 15,
  "uploader": "Vitamin_X",
  "files": -1,
  "time": 1360666471,
  "description": "_________________________  Visit us at _________________________\n  &lt;a href=&quot;\nhttp://p2pdl.com&quot; rel=&quot;nofollow&quot; target=&quot;_NEW&quot;&gt;\nhttp://p2pdl.com&lt;/a&gt;  ____________________________ &lt;a href=&quot; http://p2pdl.com&quot; rel=&quot;nofollow&quot; target=&quot;_NEW&quot;&gt; http://p2pdl.com&lt;/a&gt;\n\n &lt;a href=&quot;\nhttp://www.shotpix.com/images/43765463970070413068.jpg&quot; rel=&quot;nofollow&quot; target=&quot;_NEW&quot;&gt;\nhttp://www.shotpix.com/images/43765463970070413068.jpg&lt;/a&gt;\n\n\nPink - Just Give Me A Reason (Ft. Nate Ruess) 2013 M4A+MP4 (1080p) x264 [VX] [P2PDL]\n\n\n                            1080p Full HD MP4 Video\n                                      +\n                             128 Kbps/VBR M4A Audio\n\nGeneral\nComplete name                  : P!nk Ft. Nate Ruess - Just Give Me A Reason (1080p) x264 [VX] [P2PDL].mp4\nFormat                         : MPEG-4\nFormat profile                 : Base Media / Version 2\nCodec ID                       : mp42\nFile size                      : 37.3 MiB\nDuration                       : 4mn 2s\nOverall bit rate mode          : Variable\nOverall bit rate               : 1 290 Kbps\n\nVideo\nFormat                         : AVC\nFormat/Info                    : Advanced Video Codec\nFormat profile                 : &lt;a class=&quot;__cf_email__&quot; href=&quot;/cdn-cgi/l/email-protection&quot; data-cfemail=&quot;a1e9c8c6c9e1ed958f91&quot;&gt;[email&amp;#160;protected]&lt;/a&gt;&lt;script cf-hash='f9e31' type=&quot;text/javascript&quot;&gt;\n/* &lt;![CDATA[ */!function(){try{var t=&quot;currentScript&quot;in document?document.currentScript:function(){for(var t=document.getElementsByTagName(&quot;script&quot;),e=t.length;e--;)if(t[e].getAttribute(&quot;cf-hash&quot;))return t[e]}();if(t&amp;&amp;t.previousSibling){var e,r,n,i,c=t.previousSibling,a=c.getAttribute(&quot;data-cfemail&quot;);if(a){for(e=&quot;&quot;,r=parseInt(a.substr(0,2),16),n=2;a.length-n;n+=2)i=parseInt(a.substr(n,2),16)^r,e+=String.fromCharCode(i);e=document.createTextNode(e),c.parentNode.replaceChild(e,c)}}}catch(u){}}();/* ]]&gt; */&lt;/script&gt;\nWidth                          : 1 920 pixels\nHeight                         : 800 pixels\nDisplay aspect ratio           : 2.40:1\nFrame rate mode                : Variable\nFrame rate                     : 23.976 fps\nStream size                    : 33.4 MiB (90%)\nWriting library                : x264 core 129\n\nAudio\nID                             : 2\nFormat                         : AAC\nBit rate mode                  : Variable\nBit rate                       : 128 Kbps\nChannel(s)                     : 2 channels\nChannel positions              : Front: L R\nSampling rate                  : 48.0 KHz\nStream size                    : 3.70 MiB (10%)\n\nSubtitles                      : No\n\nScreens:\n &lt;a href=&quot;\nhttp://www.shotpix.com/images/31234810353045038638.jpg&quot; rel=&quot;nofollow&quot; target=&quot;_NEW&quot;&gt;\nhttp://www.shotpix.com/images/31234810353045038638.jpg&lt;/a&gt; &lt;a href=&quot;\nhttp://www.shotpix.com/images/50467484301360138129.jpg&quot; rel=&quot;nofollow&quot; target=&quot;_NEW&quot;&gt;\nhttp://www.shotpix.com/images/50467484301360138129.jpg&lt;/a&gt;\n\nThumbs:\n &lt;a href=&quot;\nhttp://www.shotpix.com/images/69539864465745427993.jpg&quot; rel=&quot;nofollow&quot; target=&quot;_NEW&quot;&gt;\nhttp://www.shotpix.com/images/69539864465745427993.jpg&lt;/a&gt;\n------------------------------------------------------------------------\n\nNotes:\n\n* Recommended to use latest version VLC Media Player.\n* Install shark007 codecs in case of any kind of problem in playback (For non-VLC Media Player users).\n* Alternatively, install Core AVC codecs, the fastest decoder that there is coupled with Community Center Codec Pack and play on Windows Media Player Classic.\n\nGreets to: VYTO, a2zRG, MusiK_KinG, Kuroyukihime, Caveman, Ash968, Neon, TwentyForty, Masta, TorDigger and staff members at ExtraTorrent, TPB, H33T, KAT, 1337x, PublicHD, Ahashare, TorrentMafia, Limetorrents, BTScene, P2PDL, and all others\n\nEncoder Notes: Looking For Early Access To Anything You Can Provide DVDScr, R5, DVDRips, BluRay, Direct Audio, Early Music\nReleases, Seedboxes, Links, Dedicated Servers anything u can provide, Advance / Promo CDs/DVDs. If You Got anything to\noffer contact me at &quot;&lt;a class=&quot;__cf_email__&quot; href=&quot;/cdn-cgi/l/email-protection&quot; data-cfemail=&quot;8cfcfeebcce4f9ffe4a2efe3e1&quot;&gt;[email&amp;#160;protected]&lt;/a&gt;&lt;script cf-hash='f9e31' type=&quot;text/javascript&quot;&gt;\n/* &lt;![CDATA[ */!function(){try{var t=&quot;currentScript&quot;in document?document.currentScript:function(){for(var t=document.getElementsByTagName(&quot;script&quot;),e=t.length;e--;)if(t[e].getAttribute(&quot;cf-hash&quot;))return t[e]}();if(t&amp;&amp;t.previousSibling){var e,r,n,i,c=t.previousSibling,a=c.getAttribute(&quot;data-cfemail&quot;);if(a){for(e=&quot;&quot;,r=parseInt(a.substr(0,2),16),n=2;a.length-n;n+=2)i=parseInt(a.substr(n,2),16)^r,e+=String.fromCharCode(i);e=document.createTextNode(e),c.parentNode.replaceChild(e,c)}}}catch(u){}}();/* ]]&gt; */&lt;/script&gt;&quot;.",
  "parsed": {
    "xt": "urn:btih:120ad76789b11bce2d6005d1c22ccf1507c3021a",
    "dn": "Pink - Just Give Me A Reason (Ft. Nate Ruess) M4A MP4 (1080p) x2",
    "tr": [
      "udp://exodus.desync.com:6969",
      "udp://open.demonii.com:1337",
      "udp://tracker.coppersurfer.tk:6969",
      "udp://tracker.openbittorrent.com:80"
    ],
    "infoHash": "120ad76789b11bce2d6005d1c22ccf1507c3021a",
    "infoHashBuffer": {
      "type": "Buffer",
      "data": [
        18,
        10,
        215,
        103,
        137,
        177,
        27,
        206,
        45,
        96,
        5,
        209,
        194,
        44,
        207,
        21,
        7,
        195,
        2,
        26
      ]
    },
    "name": "Pink - Just Give Me A Reason (Ft. Nate Ruess) M4A MP4 (1080p) x2",
    "announce": [
      "udp://exodus.desync.com:6969",
      "udp://open.demonii.com:1337",
      "udp://tracker.coppersurfer.tk:6969",
      "udp://tracker.openbittorrent.com:80"
    ],
    "urlList": []
  },
  "previous": 61,
  "peers": 23,
  "last_updated": "2016-12-26T16:43:55.138Z"
}